<svg width="73" height="47" viewBox="0 0 73 47" fill="none" xmlns="http://www.w3.org/2000/svg">
<path d="M47.1124 19.5833H15.7041C15.3838 19.5833 15.0765 19.6659 14.8499 19.8128C14.6234 19.9597 14.4961 20.1589 14.4961 20.3667C14.4961 20.5744 14.6234 20.7737 14.8499 20.9206C15.0765 21.0675 15.3838 21.15 15.7041 21.15H47.1124C47.4328 21.15 47.7401 21.0675 47.9666 20.9206C48.1932 20.7737 48.3205 20.5744 48.3205 20.3667C48.3205 20.1589 48.1932 19.9597 47.9666 19.8128C47.7401 19.6659 47.4328 19.5833 47.1124 19.5833ZM32.6163 28.9833H15.7041C15.3838 28.9833 15.0765 29.0659 14.8499 29.2128C14.6234 29.3597 14.4961 29.5589 14.4961 29.7667C14.4961 29.9744 14.6234 30.1737 14.8499 30.3206C15.0765 30.4675 15.3838 30.55 15.7041 30.55H32.6163C32.9367 30.55 33.244 30.4675 33.4705 30.3206C33.697 30.1737 33.8243 29.9744 33.8243 29.7667C33.8243 29.5589 33.697 29.3597 33.4705 29.2128C33.244 29.0659 32.9367 28.9833 32.6163 28.9833ZM22.9522 38.3833H15.7041C15.3838 38.3833 15.0765 38.4659 14.8499 38.6128C14.6234 38.7597 14.4961 38.9589 14.4961 39.1667C14.4961 39.3744 14.6234 39.5737 14.8499 39.7206C15.0765 39.8675 15.3838 39.95 15.7041 39.95H22.9522C23.2726 39.95 23.5799 39.8675 23.8064 39.7206C24.033 39.5737 24.1602 39.3744 24.1602 39.1667C24.1602 38.9589 24.033 38.7597 23.8064 38.6128C23.5799 38.4659 23.2726 38.3833 22.9522 38.3833ZM8.45607 18.0167C7.7393 18.0167 7.03863 18.1545 6.44266 18.4127C5.84669 18.6709 5.38219 19.038 5.10789 19.4674C4.8336 19.8968 4.76183 20.3693 4.90166 20.8251C5.0415 21.281 5.38665 21.6997 5.89349 22.0284C6.40032 22.357 7.04606 22.5808 7.74905 22.6715C8.45205 22.7622 9.18072 22.7156 9.84292 22.5378C10.5051 22.3599 11.0711 22.0587 11.4693 21.6723C11.8676 21.2858 12.0801 20.8314 12.0801 20.3667C12.0801 19.7434 11.6983 19.1457 11.0186 18.705C10.339 18.2643 9.41722 18.0167 8.45607 18.0167ZM8.45607 21.15C8.21714 21.15 7.98359 21.1041 7.78493 21.018C7.58627 20.9319 7.43144 20.8096 7.34001 20.6664C7.24858 20.5233 7.22465 20.3658 7.27127 20.2138C7.31788 20.0619 7.43293 19.9223 7.60187 19.8128C7.77082 19.7032 7.98606 19.6286 8.22039 19.5984C8.45473 19.5682 8.69762 19.5837 8.91835 19.643C9.13909 19.7022 9.32775 19.8026 9.46049 19.9315C9.59323 20.0603 9.66408 20.2117 9.66408 20.3667C9.66408 20.5744 9.53681 20.7737 9.31026 20.9206C9.08371 21.0675 8.77645 21.15 8.45607 21.15ZM8.45607 27.4167C7.7393 27.4167 7.03863 27.5545 6.44266 27.8127C5.84669 28.0709 5.38219 28.438 5.10789 28.8674C4.8336 29.2968 4.76183 29.7693 4.90166 30.2251C5.0415 30.681 5.38665 31.0997 5.89349 31.4284C6.40032 31.757 7.04606 31.9808 7.74905 32.0715C8.45205 32.1622 9.18072 32.1156 9.84292 31.9378C10.5051 31.7599 11.0711 31.4587 11.4693 31.0723C11.8676 30.6858 12.0801 30.2314 12.0801 29.7667C12.0801 29.1434 11.6983 28.5457 11.0186 28.105C10.339 27.6643 9.41722 27.4167 8.45607 27.4167ZM8.45607 30.55C8.21714 30.55 7.98359 30.5041 7.78493 30.418C7.58627 30.3319 7.43144 30.2096 7.34001 30.0664C7.24858 29.9233 7.22465 29.7658 7.27127 29.6138C7.31788 29.4619 7.43293 29.3223 7.60187 29.2128C7.77082 29.1032 7.98606 29.0286 8.22039 28.9984C8.45473 28.9682 8.69762 28.9837 8.91835 29.043C9.13909 29.1022 9.32775 29.2026 9.46049 29.3315C9.59323 29.4603 9.66408 29.6117 9.66408 29.7667C9.66408 29.9744 9.53681 30.1737 9.31026 30.3206C9.08371 30.4675 8.77645 30.55 8.45607 30.55ZM8.45607 36.8167C7.7393 36.8167 7.03863 36.9545 6.44266 37.2127C5.84669 37.4709 5.38219 37.838 5.10789 38.2674C4.8336 38.6968 4.76183 39.1693 4.90166 39.6251C5.0415 40.081 5.38665 40.4997 5.89349 40.8284C6.40032 41.157 7.04606 41.3808 7.74905 41.4715C8.45205 41.5622 9.18072 41.5156 9.84292 41.3378C10.5051 41.1599 11.0711 40.8587 11.4693 40.4723C11.8676 40.0858 12.0801 39.6314 12.0801 39.1667C12.0801 38.5434 11.6983 37.9457 11.0186 37.505C10.339 37.0643 9.41722 36.8167 8.45607 36.8167ZM8.45607 39.95C8.21714 39.95 7.98359 39.9041 7.78493 39.818C7.58627 39.7319 7.43144 39.6096 7.34001 39.4664C7.24858 39.3233 7.22465 39.1658 7.27127 39.0138C7.31788 38.8619 7.43293 38.7223 7.60187 38.6128C7.77082 38.5032 7.98606 38.4286 8.22039 38.3984C8.45473 38.3682 8.69762 38.3837 8.91835 38.443C9.13909 38.5022 9.32775 38.6026 9.46049 38.7315C9.59323 38.8603 9.66408 39.0117 9.66408 39.1667C9.66408 39.3744 9.53681 39.5737 9.31026 39.7206C9.08371 39.8675 8.77645 39.95 8.45607 39.95Z" fill="black"/>
<path d="M6.04006 47H47.1125C48.7138 46.9988 50.249 46.5857 51.3813 45.8515C52.5136 45.1172 53.1506 44.1217 53.1525 43.0833V29.9508L69.2191 19.5324C69.541 19.9693 69.6469 20.46 69.5224 20.9375C69.3978 21.4149 69.0489 21.8557 68.5233 22.1997L57.4168 29.4009C57.1968 29.5486 57.075 29.7465 57.0778 29.9518C57.0805 30.1572 57.2076 30.3537 57.4315 30.4989C57.6555 30.6442 57.9585 30.7266 58.2752 30.7283C58.592 30.7301 58.8971 30.6512 59.1249 30.5085L70.2302 23.3081C71.3611 22.573 71.9963 21.577 71.9963 20.5386C71.9963 19.5002 71.3611 18.5043 70.2302 17.7691L69.3761 17.2153L71.9383 15.5531C72.2749 15.3349 72.5419 15.0758 72.7241 14.7906C72.9062 14.5055 73 14.1999 73 13.8912C73 13.5826 72.9062 13.277 72.7241 12.9918C72.5419 12.7067 72.2749 12.4476 71.9383 12.2294C71.2479 11.8023 70.3303 11.5641 69.3761 11.5641C68.422 11.5641 67.5044 11.8023 66.8139 12.2294L64.2505 13.8909C64.0262 13.7453 63.7598 13.6298 63.4666 13.5511C63.1734 13.4723 62.8592 13.4318 62.5418 13.4318C62.2244 13.4318 61.9102 13.4723 61.617 13.5511C61.3238 13.6298 61.0574 13.7453 60.8331 13.8909L53.1525 18.8729V7.83333C53.1506 6.79495 52.5136 5.79945 51.3813 5.06521C50.249 4.33096 48.7138 3.91791 47.1125 3.91667H46.5085V2.74167C46.5085 2.01453 46.063 1.31718 45.2701 0.803016C44.4772 0.288853 43.4018 0 42.2804 0C41.1591 0 40.0837 0.288853 39.2907 0.803016C38.4978 1.31718 38.0524 2.01453 38.0524 2.74167V3.91667H30.8043V2.74167C30.8043 2.01453 30.3589 1.31718 29.5659 0.803016C28.773 0.288853 27.6976 0 26.5763 0C25.4549 0 24.3795 0.288853 23.5866 0.803016C22.7937 1.31718 22.3482 2.01453 22.3482 2.74167V3.91667H15.1002V2.74167C15.1002 2.01453 14.6547 1.31718 13.8618 0.803016C13.0689 0.288853 11.9935 0 10.8721 0C9.75076 0 8.67534 0.288853 7.88243 0.803016C7.08952 1.31718 6.64407 2.01453 6.64407 2.74167V3.91667H6.04006C4.43873 3.91791 2.90353 4.33096 1.77121 5.06521C0.638896 5.79945 0.00191815 6.79495 0 7.83333V43.0833C0.00191815 44.1217 0.638896 45.1172 1.77121 45.8515C2.90353 46.5857 4.43873 46.9988 6.04006 47ZM40.3331 36.0482L35.2087 32.7245L44.6046 26.6333L49.729 29.9562L40.3331 36.0482ZM32.6586 37.7011L34.1179 34.2317L38.0065 36.7532L32.6586 37.7011ZM48.0209 24.4157L53.1525 27.7394L51.4372 28.847L46.3128 25.5241L48.0209 24.4157ZM68.5221 13.3378C68.752 13.1952 69.058 13.1156 69.3761 13.1156C69.6943 13.1156 70.0002 13.1952 70.2302 13.3378C70.4567 13.4847 70.5839 13.6839 70.5839 13.8916C70.5839 14.0993 70.4567 14.2986 70.2302 14.4455L67.668 16.1077L65.9575 14.9993L68.5221 13.3378ZM62.5412 14.9993L67.668 18.323L54.8546 26.6333L49.729 23.3097L62.5412 14.9993ZM32.6514 32.1676C32.4999 32.2647 32.3907 32.386 32.3349 32.5193L30.3271 37.2867C30.215 37.5532 30.2135 37.8341 30.3228 38.1011C30.4321 38.3681 30.6483 38.6116 30.9495 38.8069C31.2508 39.0023 31.6263 39.1425 32.038 39.2134C32.4497 39.2842 32.8831 39.2833 33.294 39.2105C35.1314 38.8831 40.6496 37.9086 40.6496 37.9086C40.8551 37.8724 41.0423 37.8016 41.192 37.7034L50.7353 31.5151V43.0833C50.7353 43.7066 50.3535 44.3043 49.6738 44.745C48.9942 45.1857 48.0724 45.4333 47.1113 45.4333H6.04006C5.07891 45.4333 4.15712 45.1857 3.47748 44.745C2.79784 44.3043 2.41602 43.7066 2.41602 43.0833V14.8833H50.7365V20.4395L32.6514 32.1676ZM40.4684 2.74167C40.4684 2.43004 40.6593 2.13117 40.9991 1.91082C41.339 1.69046 41.7998 1.56667 42.2804 1.56667C42.761 1.56667 43.2219 1.69046 43.5617 1.91082C43.9015 2.13117 44.0924 2.43004 44.0924 2.74167V5.875C44.0924 6.18663 43.9015 6.4855 43.5617 6.70585C43.2219 6.92621 42.761 7.05 42.2804 7.05C41.7998 7.05 41.339 6.92621 40.9991 6.70585C40.6593 6.4855 40.4684 6.18663 40.4684 5.875V2.74167ZM24.7642 2.74167C24.7642 2.43004 24.9552 2.13117 25.295 1.91082C25.6348 1.69046 26.0957 1.56667 26.5763 1.56667C27.0568 1.56667 27.5177 1.69046 27.8576 1.91082C28.1974 2.13117 28.3883 2.43004 28.3883 2.74167V5.875C28.3883 6.18663 28.1974 6.4855 27.8576 6.70585C27.5177 6.92621 27.0568 7.05 26.5763 7.05C26.0957 7.05 25.6348 6.92621 25.295 6.70585C24.9552 6.4855 24.7642 6.18663 24.7642 5.875V2.74167ZM9.06009 2.74167C9.06009 2.43004 9.251 2.13117 9.59082 1.91082C9.93064 1.69046 10.3915 1.56667 10.8721 1.56667C11.3527 1.56667 11.8136 1.69046 12.1534 1.91082C12.4932 2.13117 12.6841 2.43004 12.6841 2.74167V5.875C12.6841 6.18663 12.4932 6.4855 12.1534 6.70585C11.8136 6.92621 11.3527 7.05 10.8721 7.05C10.3915 7.05 9.93064 6.92621 9.59082 6.70585C9.251 6.4855 9.06009 6.18663 9.06009 5.875V2.74167ZM6.04006 5.48333H6.64407V5.875C6.64407 6.60214 7.08952 7.29949 7.88243 7.81365C8.67534 8.32781 9.75076 8.61667 10.8721 8.61667C11.9935 8.61667 13.0689 8.32781 13.8618 7.81365C14.6547 7.29949 15.1002 6.60214 15.1002 5.875V5.48333H22.3482V5.875C22.3482 6.60214 22.7937 7.29949 23.5866 7.81365C24.3795 8.32781 25.4549 8.61667 26.5763 8.61667C27.6976 8.61667 28.773 8.32781 29.5659 7.81365C30.3589 7.29949 30.8043 6.60214 30.8043 5.875V5.48333H38.0524V5.875C38.0524 6.60214 38.4978 7.29949 39.2907 7.81365C40.0837 8.32781 41.1591 8.61667 42.2804 8.61667C43.4018 8.61667 44.4772 8.32781 45.2701 7.81365C46.063 7.29949 46.5085 6.60214 46.5085 5.875V5.48333H47.1125C48.0736 5.48333 48.9954 5.73092 49.6751 6.17163C50.3547 6.61234 50.7365 7.21007 50.7365 7.83333V13.3167H2.41602V7.83333C2.41602 7.21007 2.79784 6.61234 3.47748 6.17163C4.15712 5.73092 5.07891 5.48333 6.04006 5.48333Z" fill="black"/>
<path d="M27.7843 39.95C28.4514 39.95 28.9923 39.5993 28.9923 39.1667C28.9923 38.7341 28.4514 38.3834 27.7843 38.3834C27.1171 38.3834 26.5763 38.7341 26.5763 39.1667C26.5763 39.5993 27.1171 39.95 27.7843 39.95Z" fill="black"/>
</svg>
